<svg width="142" height="137" viewBox="0 0 142 137" fill="none" xmlns="http://www.w3.org/2000/svg">
<path d="M51.7194 130.474C50.3816 134.685 45.8585 137.055 41.8258 135.25C28.9414 129.482 18.0203 119.953 10.5544 107.829C1.68383 93.4229 -1.71913 76.3108 0.964941 59.6072C3.64901 42.9036 12.2417 27.7191 25.1788 16.8175C38.116 5.91598 54.5376 0.0222212 71.4544 0.209049C88.3712 0.395877 104.659 6.65087 117.352 17.8355C130.045 29.0201 138.3 44.3907 140.615 61.1495C142.929 77.9083 139.149 94.941 129.963 109.147C122.231 121.104 111.102 130.39 98.0934 135.872C94.0218 137.587 89.5521 135.118 88.3077 130.878L78.0412 95.904C76.7968 91.6645 79.426 87.3164 82.7296 84.3826C83.9468 83.3016 85.0219 82.0541 85.9191 80.6666C88.2812 77.0138 89.2532 72.6342 88.6581 68.3251C88.0629 64.016 85.9403 60.0638 82.6766 57.188C79.4128 54.3121 75.2249 52.7038 70.8752 52.6558C66.5254 52.6078 62.303 54.1232 58.9766 56.9263C55.6501 59.7293 53.4407 63.6336 52.7506 67.9285C52.0604 72.2235 52.9354 76.6234 55.2163 80.3275C56.0826 81.7345 57.1299 83.0055 58.3229 84.113C61.5609 87.1191 64.0935 91.5243 62.7558 95.7351L51.7194 130.474Z" fill="currentColor"/>
</svg>
