<svg width="1600" height="450" viewBox="0 0 1600 450" fill="none" xmlns="http://www.w3.org/2000/svg">
<path d="M0 0H1600V450H0V0Z" fill="white"/>
<path d="M763.806 291.251C762.469 295.462 757.959 297.815 753.84 296.215C728.103 286.215 706.249 268.063 691.695 244.428C675.739 218.515 669.618 187.734 674.446 157.688C679.274 127.643 694.73 100.329 718.001 80.7198C741.272 61.1105 770.81 50.509 801.24 50.8451C831.669 51.1811 860.966 62.4324 883.799 82.5509C906.631 102.669 921.48 130.317 925.643 160.463C929.806 190.608 923.007 221.246 906.483 246.8C891.41 270.108 869.161 287.773 843.209 297.202C839.056 298.711 834.599 296.259 833.355 292.02L811.288 216.846C810.044 212.607 812.549 208.239 816.36 206.004C820.726 203.442 824.47 199.881 827.258 195.569C831.507 188.999 833.256 181.121 832.185 173.37C831.115 165.619 827.297 158.51 821.426 153.337C815.555 148.164 808.022 145.271 800.198 145.184C792.374 145.098 784.779 147.824 778.795 152.866C772.812 157.908 768.837 164.931 767.596 172.657C766.355 180.382 767.929 188.297 772.031 194.959C774.724 199.332 778.388 202.975 782.697 205.632C786.457 207.951 788.866 212.373 787.528 216.584L763.806 291.251Z" fill="black"/>
<path d="M358.718 337.2C366.312 337.2 372.179 339.141 376.318 343.024C380.456 346.907 382.526 352.56 382.526 359.984C382.526 367.408 380.456 373.061 376.318 376.944C372.179 380.827 366.312 382.768 358.718 382.768C351.123 382.768 345.256 380.848 341.118 377.008C337.022 373.125 334.974 367.451 334.974 359.984C334.974 352.517 337.022 346.864 341.118 343.024C345.256 339.141 351.123 337.2 358.718 337.2ZM358.718 347.76C355.688 347.76 353.384 348.677 351.806 350.512C350.227 352.347 349.438 354.821 349.438 357.936V362.032C349.438 365.147 350.227 367.621 351.806 369.456C353.384 371.291 355.688 372.208 358.718 372.208C361.747 372.208 364.051 371.291 365.63 369.456C367.251 367.621 368.062 365.147 368.062 362.032V357.936C368.062 354.821 367.251 352.347 365.63 350.512C364.051 348.677 361.747 347.76 358.718 347.76Z" fill="black"/>
<path d="M411.518 347.44C416.084 347.44 419.604 348.933 422.078 351.92C424.553 354.907 425.79 359.323 425.79 365.168C425.79 370.971 424.553 375.365 422.078 378.352C419.604 381.296 416.084 382.768 411.518 382.768C407.593 382.768 404.436 381.488 402.046 378.928V394.608H389.31V348.208H399.678L400.766 353.008C403.241 349.296 406.825 347.44 411.518 347.44ZM407.55 356.848C405.673 356.848 404.265 357.509 403.326 358.832C402.388 360.155 401.918 361.883 401.918 364.016V366.128C401.918 368.261 402.388 370.011 403.326 371.376C404.265 372.699 405.673 373.36 407.55 373.36C411.22 373.36 413.054 371.163 413.054 366.768V363.376C413.054 359.024 411.22 356.848 407.55 356.848Z" fill="black"/>
<path d="M449.406 347.44C455.592 347.44 460.307 348.891 463.55 351.792C466.835 354.693 468.478 359.131 468.478 365.104V367.28H443.134C443.134 369.712 443.667 371.547 444.734 372.784C445.843 374.021 447.571 374.64 449.918 374.64C452.051 374.64 453.608 374.192 454.59 373.296C455.614 372.4 456.126 371.205 456.126 369.712H468.478C468.478 373.808 466.92 377.008 463.806 379.312C460.691 381.616 456.147 382.768 450.174 382.768C443.902 382.768 439.038 381.317 435.582 378.416C432.126 375.472 430.398 371.035 430.398 365.104C430.398 359.301 432.083 354.907 435.454 351.92C438.824 348.933 443.475 347.44 449.406 347.44ZM449.918 355.568C445.907 355.568 443.667 357.467 443.198 361.264H455.614C455.614 359.515 455.102 358.128 454.078 357.104C453.096 356.08 451.71 355.568 449.918 355.568Z" fill="black"/>
<path d="M497.917 347.44C501.843 347.44 504.787 348.528 506.749 350.704C508.712 352.88 509.693 356.016 509.693 360.112V382H496.957V361.648C496.957 360.197 496.573 359.045 495.805 358.192C495.08 357.296 494.035 356.848 492.669 356.848C491.091 356.848 489.811 357.36 488.829 358.384C487.848 359.408 487.357 360.667 487.357 362.16V382H474.621V348.208H485.053L485.885 353.328C487.208 351.536 488.936 350.107 491.069 349.04C493.245 347.973 495.528 347.44 497.917 347.44Z" fill="black"/>
<path d="M558.013 337.2C563.645 337.2 568.275 338.352 571.901 340.656C575.528 342.917 577.384 346.288 577.469 350.768V351.536H564.221V351.28C564.221 350 563.752 348.933 562.813 348.08C561.875 347.227 560.445 346.8 558.525 346.8C556.648 346.8 555.197 347.077 554.173 347.632C553.192 348.187 552.701 348.869 552.701 349.68C552.701 350.832 553.384 351.685 554.749 352.24C556.115 352.795 558.312 353.371 561.341 353.968C564.883 354.693 567.784 355.461 570.045 356.272C572.349 357.04 574.355 358.32 576.061 360.112C577.768 361.904 578.643 364.336 578.685 367.408C578.685 372.613 576.915 376.475 573.373 378.992C569.875 381.509 565.181 382.768 559.293 382.768C552.424 382.768 547.069 381.616 543.229 379.312C539.432 377.008 537.533 372.933 537.533 367.088H550.909C550.909 369.307 551.485 370.8 552.637 371.568C553.789 372.293 555.581 372.656 558.013 372.656C559.805 372.656 561.277 372.464 562.429 372.08C563.624 371.696 564.221 370.907 564.221 369.712C564.221 368.645 563.56 367.856 562.237 367.344C560.957 366.789 558.845 366.213 555.901 365.616C552.317 364.848 549.352 364.059 547.005 363.248C544.659 362.395 542.611 361.008 540.861 359.088C539.112 357.168 538.237 354.565 538.237 351.28C538.237 346.459 540.093 342.917 543.805 340.656C547.56 338.352 552.296 337.2 558.013 337.2Z" fill="black"/>
<path d="M602.281 347.44C608.211 347.44 612.862 348.955 616.233 351.984C619.646 354.971 621.353 359.344 621.353 365.104C621.353 370.864 619.646 375.259 616.233 378.288C612.862 381.275 608.211 382.768 602.281 382.768C596.35 382.768 591.699 381.275 588.329 378.288C584.958 375.301 583.273 370.907 583.273 365.104C583.273 359.301 584.958 354.907 588.329 351.92C591.699 348.933 596.35 347.44 602.281 347.44ZM602.281 356.08C598.099 356.08 596.009 358.491 596.009 363.312V366.96C596.009 371.739 598.099 374.128 602.281 374.128C606.505 374.128 608.617 371.739 608.617 366.96V363.312C608.617 358.491 606.505 356.08 602.281 356.08Z" fill="black"/>
<path d="M652.008 382L651.176 376.88C649.854 378.715 648.104 380.165 645.928 381.232C643.795 382.256 641.534 382.768 639.144 382.768C635.219 382.768 632.275 381.68 630.312 379.504C628.35 377.328 627.368 374.192 627.368 370.096V348.208H640.104V368.56C640.104 370.011 640.467 371.184 641.192 372.08C641.96 372.933 643.027 373.36 644.392 373.36C645.971 373.36 647.251 372.848 648.232 371.824C649.214 370.8 649.704 369.541 649.704 368.048V348.208H662.44V382H652.008Z" fill="black"/>
<path d="M690.728 347.376C691.709 347.376 692.584 347.504 693.352 347.76C694.12 347.973 694.504 348.101 694.504 348.144V358.832H690.408C687.762 358.832 685.842 359.515 684.648 360.88C683.496 362.245 682.92 364.272 682.92 366.96V382H670.184V348.208H680.616L681.448 353.328C682.216 351.365 683.432 349.893 685.096 348.912C686.76 347.888 688.637 347.376 690.728 347.376Z" fill="black"/>
<path d="M717.156 347.44C722.702 347.44 727.182 348.635 730.596 351.024C734.052 353.371 735.78 356.976 735.78 361.84H723.428C723.428 358 721.337 356.08 717.156 356.08C712.974 356.08 710.884 358.491 710.884 363.312V366.96C710.884 371.739 713.06 374.128 717.412 374.128C721.764 374.128 723.94 372.165 723.94 368.24H735.78C735.78 373.147 734.052 376.795 730.596 379.184C727.182 381.573 722.702 382.768 717.156 382.768C711.225 382.768 706.574 381.275 703.204 378.288C699.833 375.301 698.148 370.907 698.148 365.104C698.148 359.301 699.833 354.907 703.204 351.92C706.574 348.933 711.225 347.44 717.156 347.44Z" fill="black"/>
<path d="M759.843 347.44C766.03 347.44 770.745 348.891 773.987 351.792C777.273 354.693 778.915 359.131 778.915 365.104V367.28H753.571C753.571 369.712 754.105 371.547 755.171 372.784C756.281 374.021 758.009 374.64 760.355 374.64C762.489 374.64 764.046 374.192 765.027 373.296C766.051 372.4 766.563 371.205 766.563 369.712H778.915C778.915 373.808 777.358 377.008 774.243 379.312C771.129 381.616 766.585 382.768 760.611 382.768C754.339 382.768 749.475 381.317 746.019 378.416C742.563 375.472 740.835 371.035 740.835 365.104C740.835 359.301 742.521 354.907 745.891 351.92C749.262 348.933 753.913 347.44 759.843 347.44ZM760.355 355.568C756.345 355.568 754.105 357.467 753.635 361.264H766.051C766.051 359.515 765.539 358.128 764.515 357.104C763.534 356.08 762.147 355.568 760.355 355.568Z" fill="black"/>
<path d="M840.355 382L834.659 355.184H834.403L828.707 382H813.155L802.851 337.968H817.571L822.627 362.928H822.883L827.875 337.968H841.827L847.139 362.928H847.395L852.131 337.968H866.211L855.907 382H840.355Z" fill="black"/>
<path d="M872.944 344.24V335.6H885.68V344.24H872.944ZM872.944 382V348.208H885.68V382H872.944Z" fill="black"/>
<path d="M916.337 348.208V356.848H909.169V369.712C909.169 371.248 909.425 372.379 909.937 373.104C910.449 373.787 911.387 374.128 912.753 374.128H916.337V381.616C915.313 381.957 913.99 382.235 912.369 382.448C910.747 382.661 909.339 382.768 908.145 382.768C904.39 382.768 901.489 382.085 899.441 380.72C897.435 379.355 896.433 377.029 896.433 373.744V356.848H891.697V348.208H896.945L899.697 337.968H909.169V348.208H916.337Z" fill="black"/>
<path d="M934.982 351.728C936.348 350.363 937.948 349.317 939.782 348.592C941.617 347.824 943.537 347.44 945.542 347.44C949.468 347.44 952.412 348.528 954.374 350.704C956.337 352.88 957.318 356.016 957.318 360.112V382H944.582V361.648C944.582 360.197 944.198 359.045 943.43 358.192C942.705 357.296 941.66 356.848 940.294 356.848C938.716 356.848 937.436 357.36 936.454 358.384C935.473 359.408 934.982 360.667 934.982 362.16V382H922.246V335.6H934.982V351.728Z" fill="black"/>
<path d="M1016.84 382V365.296H1001.29V382H987.142V337.968H1001.29V354.032H1016.84V337.968H1030.98V382H1016.84Z" fill="black"/>
<path d="M1056.26 347.44C1061.43 347.44 1065.63 348.315 1068.87 350.064C1072.11 351.771 1073.73 354.565 1073.73 358.448V371.632C1073.73 372.357 1073.91 372.955 1074.25 373.424C1074.59 373.893 1075.1 374.128 1075.78 374.128H1078.09V381.488C1077.96 381.573 1077.62 381.723 1077.06 381.936C1076.55 382.107 1075.8 382.277 1074.82 382.448C1073.84 382.661 1072.71 382.768 1071.43 382.768C1068.96 382.768 1066.91 382.405 1065.29 381.68C1063.71 380.912 1062.62 379.867 1062.02 378.544C1060.4 379.824 1058.59 380.848 1056.58 381.616C1054.58 382.384 1052.23 382.768 1049.54 382.768C1041.61 382.768 1037.64 379.611 1037.64 373.296C1037.64 370.011 1038.51 367.515 1040.26 365.808C1042.05 364.059 1044.61 362.864 1047.94 362.224C1051.27 361.584 1055.62 361.264 1061 361.264V359.6C1061 358.277 1060.53 357.275 1059.59 356.592C1058.69 355.909 1057.52 355.568 1056.07 355.568C1054.75 355.568 1053.6 355.803 1052.61 356.272C1051.68 356.741 1051.21 357.488 1051.21 358.512V358.768H1038.66C1038.62 358.555 1038.6 358.256 1038.6 357.872C1038.6 354.672 1040.11 352.133 1043.14 350.256C1046.21 348.379 1050.59 347.44 1056.26 347.44ZM1061 367.28C1057.37 367.28 1054.68 367.685 1052.93 368.496C1051.23 369.264 1050.37 370.309 1050.37 371.632C1050.37 373.765 1051.83 374.832 1054.73 374.832C1056.39 374.832 1057.84 374.384 1059.08 373.488C1060.36 372.592 1061 371.483 1061 370.16V367.28Z" fill="black"/>
<path d="M1098.31 347.44C1102.83 347.44 1106.65 348.336 1109.77 350.128C1112.92 351.877 1114.5 354.608 1114.5 358.32H1102.66C1102.66 357.083 1102.11 356.208 1101 355.696C1100.23 355.269 1099.27 355.056 1098.12 355.056C1095.05 355.056 1093.51 355.781 1093.51 357.232C1093.51 358.043 1094.04 358.619 1095.11 358.96C1096.18 359.301 1097.93 359.664 1100.36 360.048C1103.34 360.475 1105.84 360.987 1107.85 361.584C1109.85 362.139 1111.6 363.163 1113.09 364.656C1114.59 366.107 1115.33 368.155 1115.33 370.8C1115.33 375.109 1113.71 378.181 1110.47 380.016C1107.27 381.851 1103.07 382.768 1097.86 382.768C1094.88 382.768 1092.06 382.363 1089.41 381.552C1086.77 380.699 1084.61 379.397 1082.95 377.648C1081.29 375.899 1080.45 373.68 1080.45 370.992H1092.29V371.248C1092.34 372.699 1092.93 373.723 1094.09 374.32C1095.28 374.875 1096.54 375.152 1097.86 375.152C1101.4 375.152 1103.17 374.32 1103.17 372.656C1103.17 371.803 1102.62 371.184 1101.51 370.8C1100.4 370.416 1098.59 370.011 1096.07 369.584C1093.04 369.072 1090.54 368.517 1088.58 367.92C1086.66 367.323 1084.98 366.32 1083.53 364.912C1082.08 363.461 1081.35 361.456 1081.35 358.896C1081.35 354.757 1082.91 351.813 1086.02 350.064C1089.18 348.315 1093.28 347.44 1098.31 347.44Z" fill="black"/>
<path d="M1144.67 347.44C1148.59 347.44 1151.54 348.528 1153.5 350.704C1155.46 352.88 1156.44 356.016 1156.44 360.112V382H1143.71V361.648C1143.71 360.197 1143.32 359.045 1142.56 358.192C1141.83 357.296 1140.78 356.848 1139.42 356.848C1137.84 356.848 1136.56 357.36 1135.58 358.384C1134.6 359.408 1134.11 360.667 1134.11 362.16V382H1121.37V348.208H1131.8L1132.64 353.328C1133.96 351.536 1135.69 350.107 1137.82 349.04C1140 347.973 1142.28 347.44 1144.67 347.44Z" fill="black"/>
<path d="M1180.76 347.44C1185.93 347.44 1190.13 348.315 1193.37 350.064C1196.61 351.771 1198.23 354.565 1198.23 358.448V371.632C1198.23 372.357 1198.41 372.955 1198.75 373.424C1199.09 373.893 1199.6 374.128 1200.28 374.128H1202.59V381.488C1202.46 381.573 1202.12 381.723 1201.56 381.936C1201.05 382.107 1200.3 382.277 1199.32 382.448C1198.34 382.661 1197.21 382.768 1195.93 382.768C1193.46 382.768 1191.41 382.405 1189.79 381.68C1188.21 380.912 1187.12 379.867 1186.52 378.544C1184.9 379.824 1183.09 380.848 1181.08 381.616C1179.08 382.384 1176.73 382.768 1174.04 382.768C1166.11 382.768 1162.14 379.611 1162.14 373.296C1162.14 370.011 1163.01 367.515 1164.76 365.808C1166.55 364.059 1169.11 362.864 1172.44 362.224C1175.77 361.584 1180.12 361.264 1185.5 361.264V359.6C1185.5 358.277 1185.03 357.275 1184.09 356.592C1183.19 355.909 1182.02 355.568 1180.57 355.568C1179.25 355.568 1178.1 355.803 1177.11 356.272C1176.18 356.741 1175.71 357.488 1175.71 358.512V358.768H1163.16C1163.12 358.555 1163.1 358.256 1163.1 357.872C1163.1 354.672 1164.61 352.133 1167.64 350.256C1170.71 348.379 1175.09 347.44 1180.76 347.44ZM1185.5 367.28C1181.87 367.28 1179.18 367.685 1177.43 368.496C1175.73 369.264 1174.87 370.309 1174.87 371.632C1174.87 373.765 1176.33 374.832 1179.23 374.832C1180.89 374.832 1182.34 374.384 1183.58 373.488C1184.86 372.592 1185.5 371.483 1185.5 370.16V367.28Z" fill="black"/>
<path d="M1207.19 344.24V335.6H1219.93V344.24H1207.19ZM1207.19 382V348.208H1219.93V382H1207.19Z" fill="black"/>
<path d="M1251.35 347.44C1255.28 347.44 1258.22 348.528 1260.19 350.704C1262.15 352.88 1263.13 356.016 1263.13 360.112V382H1250.39V361.648C1250.39 360.197 1250.01 359.045 1249.24 358.192C1248.52 357.296 1247.47 356.848 1246.11 356.848C1244.53 356.848 1243.25 357.36 1242.27 358.384C1241.29 359.408 1240.79 360.667 1240.79 362.16V382H1228.06V348.208H1238.49L1239.32 353.328C1240.65 351.536 1242.37 350.107 1244.51 349.04C1246.68 347.973 1248.97 347.44 1251.35 347.44Z" fill="black"/>
</svg>

